<svg width="1354" height="901" viewBox="0 0 1354 901" fill="none" xmlns="http://www.w3.org/2000/svg">
<g filter="url(#filter0_d_5_46)">
<mask id="path-1-inside-1_5_46" fill="white">
<path d="M462.132 250C481.791 383.293 528.927 428.544 662.19 459.422C663.087 460.321 663.989 461.224 664.896 462.132C535.475 481.22 489.056 526.211 458.203 650.793C435.698 531.855 384.06 491.275 250 462.132C387.243 441.89 431.149 392.52 462.132 250Z"/>
</mask>
<path d="M462.132 250C481.791 383.293 528.927 428.544 662.19 459.422C663.087 460.321 663.989 461.224 664.896 462.132C535.475 481.22 489.056 526.211 458.203 650.793C435.698 531.855 384.06 491.275 250 462.132C387.243 441.89 431.149 392.52 462.132 250Z" fill="url(#paint0_linear_5_46)"/>
<path d="M462.132 250L463.368 249.818L460.91 249.734L462.132 250ZM662.19 459.422L663.075 458.539L662.822 458.285L662.473 458.204L662.19 459.422ZM664.896 462.132L665.079 463.368L667.538 463.006L665.78 461.248L664.896 462.132ZM458.203 650.793L456.975 651.025L459.416 651.093L458.203 650.793ZM250 462.132L249.818 460.895L249.734 463.353L250 462.132ZM462.132 250L460.895 250.182C470.74 316.927 487.493 361.875 518.663 393.987C549.819 426.086 595.212 445.186 661.908 460.64L662.19 459.422L662.473 458.204C595.905 442.78 551.099 423.815 520.457 392.246C489.828 360.69 473.184 316.366 463.368 249.818L462.132 250ZM662.19 459.422L661.305 460.305C662.202 461.204 663.105 462.108 664.013 463.016L664.896 462.132L665.78 461.248C664.873 460.341 663.972 459.438 663.075 458.539L662.19 459.422ZM664.896 462.132L664.714 460.895C599.909 470.453 555.651 486.525 523.739 515.984C491.83 545.439 472.436 588.121 456.99 650.493L458.203 650.793L459.416 651.093C474.823 588.884 494.065 546.779 525.434 517.821C556.8 488.867 600.463 472.899 665.079 463.368L664.896 462.132ZM458.203 650.793L459.431 650.561C448.152 590.949 429.532 550.763 396.761 521.852C364.032 492.977 317.342 475.492 250.266 460.91L250 462.132L249.734 463.353C316.718 477.915 362.877 495.292 395.107 523.727C427.297 552.126 445.749 591.698 456.975 651.025L458.203 650.793ZM250 462.132L250.182 463.368C318.906 453.232 364.519 435.771 396.807 402.795C429.07 369.843 447.852 321.573 463.353 250.266L462.132 250L460.91 249.734C445.429 320.947 426.766 368.622 395.02 401.046C363.298 433.445 318.336 450.789 249.818 460.895L250 462.132Z" fill="#0011FF" mask="url(#path-1-inside-1_5_46)"/>
</g>
<g filter="url(#filter1_d_5_46)">
<path d="M1061.69 324.236C1065.76 351.838 1075.52 361.208 1103.12 367.602C1103.31 367.788 1103.49 367.976 1103.68 368.164C1076.88 372.117 1067.27 381.434 1060.88 407.234C1056.22 382.603 1045.53 374.199 1017.76 368.164C1046.18 363.972 1055.28 353.749 1061.69 324.236Z" fill="url(#paint1_linear_5_46)"/>
</g>
<g filter="url(#filter2_df_5_46)">
<path d="M301.264 481.736C218.033 549.705 178.349 605.484 195.17 631.903C218.484 668.521 356.897 622.114 504.324 528.249C651.751 434.384 752.364 328.607 729.05 291.989C709.451 261.206 613.516 283.805 494.264 349.236" stroke="url(#paint2_linear_5_46)" stroke-width="25"/>
</g>
<path d="M911.037 466.145C911.037 486.448 907.188 503.721 899.491 517.963C891.855 532.206 881.431 543.084 868.219 550.6C855.067 558.054 840.279 561.781 823.855 561.781C807.31 561.781 792.461 558.024 779.31 550.509C766.158 542.994 755.764 532.115 748.128 517.872C740.491 503.63 736.673 486.387 736.673 466.145C736.673 445.842 740.491 428.569 748.128 414.327C755.764 400.084 766.158 389.236 779.31 381.781C792.461 374.266 807.31 370.509 823.855 370.509C840.279 370.509 855.067 374.266 868.219 381.781C881.431 389.236 891.855 400.084 899.491 414.327C907.188 428.569 911.037 445.842 911.037 466.145ZM871.128 466.145C871.128 452.994 869.158 441.903 865.219 432.872C861.34 423.842 855.855 416.994 848.764 412.327C841.673 407.66 833.37 405.327 823.855 405.327C814.34 405.327 806.037 407.66 798.946 412.327C791.855 416.994 786.34 423.842 782.4 432.872C778.522 441.903 776.582 452.994 776.582 466.145C776.582 479.297 778.522 490.387 782.4 499.418C786.34 508.448 791.855 515.297 798.946 519.963C806.037 524.63 814.34 526.963 823.855 526.963C833.37 526.963 841.673 524.63 848.764 519.963C855.855 515.297 861.34 508.448 865.219 499.418C869.158 490.387 871.128 479.297 871.128 466.145ZM939.469 559.236V419.6H977.014V443.963H978.469C981.014 435.297 985.287 428.751 991.287 424.327C997.287 419.842 1004.2 417.6 1012.01 417.6C1013.95 417.6 1016.04 417.721 1018.29 417.963C1020.53 418.206 1022.5 418.539 1024.2 418.963V453.327C1022.38 452.781 1019.86 452.297 1016.65 451.872C1013.44 451.448 1010.5 451.236 1007.83 451.236C1002.14 451.236 997.044 452.478 992.56 454.963C988.135 457.387 984.62 460.781 982.014 465.145C979.469 469.509 978.196 474.539 978.196 480.236V559.236H939.469ZM1142.2 478.509V559.236H1103.47V419.6H1140.38V444.236H1142.01C1145.11 436.115 1150.29 429.691 1157.56 424.963C1164.83 420.175 1173.65 417.781 1184.01 417.781C1193.71 417.781 1202.17 419.903 1209.38 424.145C1216.59 428.387 1222.2 434.448 1226.2 442.327C1230.2 450.145 1232.2 459.478 1232.2 470.327V559.236H1193.47V477.236C1193.53 468.691 1191.35 462.024 1186.92 457.236C1182.5 452.387 1176.41 449.963 1168.65 449.963C1163.44 449.963 1158.83 451.084 1154.83 453.327C1150.89 455.569 1147.8 458.842 1145.56 463.145C1143.38 467.387 1142.26 472.509 1142.2 478.509Z" fill="white"/>
<rect x="1041.76" y="420.236" width="38" height="139" fill="white"/>
<defs>
<filter id="filter0_d_5_46" x="0" y="1.52588e-05" width="914.896" height="900.793" filterUnits="userSpaceOnUse" color-interpolation-filters="sRGB">
<feFlood flood-opacity="0" result="BackgroundImageFix"/>
<feColorMatrix in="SourceAlpha" type="matrix" values="0 0 0 0 0 0 0 0 0 0 0 0 0 0 0 0 0 0 127 0" result="hardAlpha"/>
<feOffset/>
<feGaussianBlur stdDeviation="125"/>
<feComposite in2="hardAlpha" operator="out"/>
<feColorMatrix type="matrix" values="0 0 0 0 0 0 0 0 0 0.0833333 0 0 0 0 1 0 0 0 1 0"/>
<feBlend mode="normal" in2="BackgroundImageFix" result="effect1_dropShadow_5_46"/>
<feBlend mode="normal" in="SourceGraphic" in2="effect1_dropShadow_5_46" result="shape"/>
</filter>
<filter id="filter1_d_5_46" x="767.764" y="74.236" width="585.916" height="582.998" filterUnits="userSpaceOnUse" color-interpolation-filters="sRGB">
<feFlood flood-opacity="0" result="BackgroundImageFix"/>
<feColorMatrix in="SourceAlpha" type="matrix" values="0 0 0 0 0 0 0 0 0 0 0 0 0 0 0 0 0 0 127 0" result="hardAlpha"/>
<feOffset/>
<feGaussianBlur stdDeviation="125"/>
<feComposite in2="hardAlpha" operator="out"/>
<feColorMatrix type="matrix" values="0 0 0 0 0 0 0 0 0 0.0833333 0 0 0 0 1 0 0 0 1 0"/>
<feBlend mode="normal" in2="BackgroundImageFix" result="effect1_dropShadow_5_46"/>
<feBlend mode="normal" in="SourceGraphic" in2="effect1_dropShadow_5_46" result="shape"/>
</filter>
<filter id="filter2_df_5_46" x="128.874" y="215.912" width="666.046" height="491.014" filterUnits="userSpaceOnUse" color-interpolation-filters="sRGB">
<feFlood flood-opacity="0" result="BackgroundImageFix"/>
<feColorMatrix in="SourceAlpha" type="matrix" values="0 0 0 0 0 0 0 0 0 0 0 0 0 0 0 0 0 0 127 0" result="hardAlpha"/>
<feOffset/>
<feGaussianBlur stdDeviation="25"/>
<feColorMatrix type="matrix" values="0 0 0 0 0 0 0 0 0 0.0666667 0 0 0 0 1 0 0 0 1 0"/>
<feBlend mode="normal" in2="BackgroundImageFix" result="effect1_dropShadow_5_46"/>
<feBlend mode="normal" in="SourceGraphic" in2="effect1_dropShadow_5_46" result="shape"/>
<feGaussianBlur stdDeviation="5" result="effect2_foregroundBlur_5_46"/>
</filter>
<linearGradient id="paint0_linear_5_46" x1="457.448" y1="250" x2="457.448" y2="650.793" gradientUnits="userSpaceOnUse">
<stop stop-color="#D7E8FF"/>
<stop offset="1" stop-color="#D8FEFF"/>
</linearGradient>
<linearGradient id="paint1_linear_5_46" x1="1060.76" y1="324.236" x2="1060.72" y2="407.234" gradientUnits="userSpaceOnUse">
<stop stop-color="#A4CAFF"/>
<stop offset="1" stop-color="#D8FEFF"/>
</linearGradient>
<linearGradient id="paint2_linear_5_46" x1="509.764" y1="543.236" x2="400.764" y2="376.736" gradientUnits="userSpaceOnUse">
<stop stop-color="#006FFF"/>
<stop offset="0.461538" stop-color="#0015FF"/>
<stop offset="1" stop-color="#00096D"/>
</linearGradient>
</defs>
</svg>
